<svg width="40" height="40" fill="none" xmlns="http://www.w3.org/2000/svg"><path fill-rule="evenodd" clip-rule="evenodd" d="M0 2a2 2 0 012-2h6a2 2 0 012 2v2h20V2a2 2 0 012-2h6a2 2 0 012 2v6a2 2 0 01-2 2h-2v13a1 1 0 01-2 0V10h-2a2 2 0 01-2-2V6H10v2a2 2 0 01-2 2H6v20h2a2 2 0 012 2v2h12a1 1 0 010 2H10v2a2 2 0 01-2 2H2a2 2 0 01-2-2v-6a2 2 0 012-2h2V10H2a2 2 0 01-2-2V2zm32 0v6h6V2h-6zM2 2v6h6V2H2zm0 30h6v6H2v-6z" fill="#3D7DD0"/><path d="M27 15a1 1 0 00-1-1H14a1 1 0 100 2h5v11a1 1 0 102 0V16h5a1 1 0 001-1z" fill="#3D7DD0"/><path fill-rule="evenodd" clip-rule="evenodd" d="M24 40l16-16v16H24zm4.828-2L38 28.828V38h-9.172z" fill="#3D7DD0"/></svg>