<svg width="40" height="40" fill="none" xmlns="http://www.w3.org/2000/svg"><path fill-rule="evenodd" clip-rule="evenodd" d="M.938 0A.937.937 0 000 .938V30c0 5.523 4.477 10 10 10h29.063c.517 0 .937-.42.937-.938V20.939a.937.937 0 00-.938-.938h-4.351l3.195-3.195a.938.938 0 000-1.326L25.089 2.663a.937.937 0 00-1.326 0L20 6.426V.937A.937.937 0 0019.062 0H.938zM20 9.255v3.875L26.87 20h5.012l3.858-3.858L24.426 4.828 20 9.255zM24.041 20L20 15.959V20h4.041zM27 38H16.001A9.985 9.985 0 0020 30v-8h7v16zm-9-8a8 8 0 11-16 0v-5h16v5zM2 23h16V13H2v10zm0-12V2h16v9H2zm36 11h-9v16h9V22z" fill="#3D7DD0"/></svg>