<svg width="40" height="40" fill="none" xmlns="http://www.w3.org/2000/svg"><path d="M4 4h2v2H4V4zm6 0H8v2h2V4zm4 0h-2v2h2V4zm-3 14a1 1 0 000 2h12a1 1 0 000-2H11z" fill="#3D7DD0"/><path fill-rule="evenodd" clip-rule="evenodd" d="M34 14H6v10h28V14zm-2 2H8v6h24v-6z" fill="#3D7DD0"/><path d="M6 28a1 1 0 011-1h17a1 1 0 010 2H7a1 1 0 01-1-1zm1 3a1 1 0 000 2h11a1 1 0 000-2H7z" fill="#3D7DD0"/><path fill-rule="evenodd" clip-rule="evenodd" d="M3 0a3 3 0 00-3 3v34a3 3 0 003 3h34a3 3 0 003-3V3a3 3 0 00-3-3H3zm0 2a1 1 0 00-1 1v5h36V3a1 1 0 00-1-1H3zm35 8H2v27a1 1 0 001 1h34a1 1 0 001-1V10z" fill="#3D7DD0"/></svg>