<svg><symbol id="yt" xmlns="http://www.w3.org/2000/svg"><path fill-rule="evenodd" clip-rule="evenodd" d="M10.999 13H4A4.174 4.174 0 01.003 8.666V4.333A4.18 4.18 0 014.001 0H11a4.176 4.176 0 013.998 4.334v4.333A4.178 4.178 0 0110.999 13zm1.999-8.745a2.133 2.133 0 00-2-2.245H4.002a2.132 2.132 0 00-1.999 2.245v4.489a2.133 2.133 0 002 2.245H11a2.132 2.132 0 001.999-2.245V4.255zM6 3.987L9.999 6.5 6.001 9.011V3.987z"/></symbol><symbol id="twitter" xmlns="http://www.w3.org/2000/svg"><path fill-rule="evenodd" clip-rule="evenodd" d="M6.259 3.418S6.496.071 8.829.042C10.727.017 11.09.88 11.09.88a4.281 4.281 0 001.556-.862 2.55 2.55 0 01-.636 1.508c.36-.003.71-.13.989-.36a1.941 1.941 0 01-1.037 1.245 9.717 9.717 0 01-1.6 5.916C8.666 10.795 5.575 10.979 3.88 11A9.039 9.039 0 01.015 9.873s2.571.032 3.723-.81a18.227 18.227 0 01-2.549-2.106c.31.026.623-.006.923-.093a13.751 13.751 0 01-2.1-2.9c.32.064.645.08.968.05C.98 4.014-.519 1.58.19 0c0 .004 2.534 3.205 6.069 3.418z"/></symbol><symbol id="instagram" xmlns="http://www.w3.org/2000/svg"><path fill-rule="evenodd" clip-rule="evenodd" d="M4 0h7a4 4 0 014 4v7a4 4 0 01-4 4H4a4 4 0 01-4-4V4a4 4 0 014-4zm0 2h7a2 2 0 012 2v7a2 2 0 01-2 2H4a2 2 0 01-2-2V4a2 2 0 012-2zm3.5 2a3.5 3.5 0 110 7 3.5 3.5 0 010-7zm0 2a1.5 1.5 0 110 3 1.5 1.5 0 010-3z"/></symbol><symbol id="vk" xmlns="http://www.w3.org/2000/svg"><path fill-rule="evenodd" clip-rule="evenodd" d="M8.951.785v3.253a.34.34 0 00.424.35c.3-.02.974-2.796 1.274-3.4a1.92 1.92 0 01.735-.826c.1-.091.23-.146.365-.156h2.866a.461.461 0 01.382.51.464.464 0 01-.084.217c-.224.5-2.145 3.605-2.245 3.731-.12.163-.2.35-.236.55a1.2 1.2 0 00.31.626c.2.225 1.809 1.997 1.96 2.152.141.163.236.362.273.575a.762.762 0 01-.796.612h-2.332a2.786 2.786 0 01-.948-.564c-.224-.2-1.055-1.15-1.18-1.276a.405.405 0 00-.349-.144c-.149 0-.433.015-.42.584.036.394-.047.79-.237 1.137a.988.988 0 01-.734.275 4.967 4.967 0 01-2.901-.726C3.511 7.289 1.726 4.682.896 3.018A6.517 6.517 0 010 .308c.05-.177.05-.3.225-.3h2.589a.833.833 0 01.35.325c.074.1.643 1.81.818 2.11.174.3 1.033 1.947 1.5 1.947a.597.597 0 00.471-.699V1.514A1.934 1.934 0 004.98.516a1.257 1.257 0 01.923-.5C6.5-.008 7.998-.009 8.322.04a.778.778 0 01.63.745z"/></symbol><symbol id="city" viewBox="0 0 12 12" fill="none" xmlns="http://www.w3.org/2000/svg"><path opacity=".5" d="M5.901 6.099l1.337 4.456s0 .445.445.445c.446 0 .446-.445.446-.445l2.673-8.02s.446-.891 0-1.337c-.446-.446-1.337 0-1.337 0l-8.02 2.673S1 3.871 1 4.317c0 .445.446.445.446.445L5.9 6.1z" stroke-width="2" stroke-linecap="round" stroke-linejoin="round"/></symbol><symbol id="gps" viewBox="0 0 9 13" fill="none" xmlns="http://www.w3.org/2000/svg"><g opacity=".5"><path fill-rule="evenodd" clip-rule="evenodd" d="M7.857 7.592A4.5 4.5 0 104 9.068v2.455a.5.5 0 00.908.289l2.876-4.067a.5.5 0 00.073-.153z" fill="#333"/><circle r="2.5" transform="matrix(1 0 0 -1 4.5 4.596)" fill="#fff"/></g></symbol><symbol id="phone" viewBox="0 0 15 14" fill="none" xmlns="http://www.w3.org/2000/svg"><path d="M3 7.024V7v.024zm0 0c0 2.383.887 3.992 1.08 4.225M3 7.024l1.08 4.225M2 7.001v-.025h0c0-1.316.244-2.422.52-3.238.263-.78.58-1.373.79-1.625h0c.16-.193.413-.434.733-.64a2.766 2.766 0 011.288-.451h0a5.07 5.07 0 01.858-.008h0c.057.004.075.006.1.006L2 7zm0 0v.023c0 1.316.244 2.422.52 3.238.263.78.58 1.373.79 1.625.16.193.413.434.733.64.319.206.762.413 1.288.451.477.034.68.022.858.008h0c.057-.004.075-.006.1-.006h0c.387 0 .68-.197.786-.273.153-.109.29-.24.402-.366.113-.127.226-.278.317-.441A1.51 1.51 0 008 11.176L2 7.001zm3.356-.003v.024l-.001.022h0v.024h0a12.05 12.05 0 00.065 1.105c.128-.02.28-.035.426-.027l-.49-1.148zm0 0l-.001-.023m0 .023v-.023m-.256 1.647v0zm0 0l-.116.64c-.16-.03-.387-.088-.483-.498l.6-.142zm.256-1.647v-.043.043zm2.067 2.752h0l.008.013c.09.147.215.35.317.551.081.16.253.507.253.885l-.578-1.449zm0 0l-.003-.004.003.004zm-.203-5.095h0l-.01.022c-.074.141-.187.36-.317.546a1.78 1.78 0 01-.312.351 1.245 1.245 0 01-.734.303h0a2.034 2.034 0 01-.426-.027 12.046 12.046 0 00-.065 1.105l1.864-2.3zm0 0c.058-.112.093-.18.121-.226l-.12.226zm-.01 4.714l.01.022-.01-.022zm0 0c-.074-.141-.187-.36-.317-.546m.316.546L6.892 8.8m0 0a1.78 1.78 0 00-.312-.351m.312.35l-.312-.35m0 0a1.245 1.245 0 00-.734-.303l.734.303zM5.403 11.98c.426.031.58.02.709.009.057-.004.11-.009.178-.009h-.887zm0 0c-.613-.043-1.13-.497-1.323-.73m1.323.73l-1.323-.73M5.1 8.621v0zm2.24.972a4.532 4.532 0 01-.12-.226l.2.355c-.03-.049-.057-.09-.08-.13zM8 2.824a1.51 1.51 0 00-.206-.724 2.54 2.54 0 00-.317-.44 2.439 2.439 0 00-.402-.367c-.107-.076-.399-.273-.785-.273L8 2.824zm-.253.885c.081-.16.253-.507.253-.885l-.581 1.454s0 0 0 0l.003-.005h0l.008-.013c.09-.147.215-.35.317-.551z" stroke="#333" stroke-width="2" opacity=".5"/></symbol><symbol id="lang" viewBox="0 0 18 18" fill="none" xmlns="http://www.w3.org/2000/svg"><g opacity=".5"><circle cx="9" cy="9" r="8" stroke="#333" stroke-width="2"/><mask id="mask0" maskUnits="userSpaceOnUse" x="0" y="0" width="18" height="18"><circle cx="9" cy="9" r="8" fill="#C4C4C4" stroke="#333" stroke-width="2"/></mask><g mask="url(#mask0)" stroke="#333" stroke-width="2"><path d="M2 6s4.242 1 7 1 4.338-.226 7-1M2 12s4.242-1 7-1 4.338.226 7 1"/><path d="M12 9c0 3.233-.935 5.278-1.812 6.497A6.765 6.765 0 019 16.78a6.765 6.765 0 01-1.188-1.284C6.935 14.278 6 12.233 6 9s.935-5.278 1.812-6.497A6.695 6.695 0 019 1.22c.315.258.75.674 1.188 1.284C11.065 3.722 12 5.767 12 9zm-2.525 8.12h0s0 0 0 0zm-.95 0s0 0 0 0h0z"/></g></g></symbol><symbol id="profile" viewBox="0 0 18 18" fill="none" xmlns="http://www.w3.org/2000/svg"><g opacity=".5"><path d="M11 2a1 1 0 100-2v2zm7 5a1 1 0 10-2 0h2zm-7 9H7v2h4v-2zm-9-5V7H0v4h2zm5-9h4V0H7v2zm9 5v4h2V7h-2zm-9 9a5 5 0 01-5-5H0a7 7 0 007 7v-2zm4 2a7 7 0 007-7h-2a5 5 0 01-5 5v2zM2 7a5 5 0 015-5V0a7 7 0 00-7 7h2z" fill="#333"/><mask id="mask0" maskUnits="userSpaceOnUse" x="0" y="0" width="18" height="18"><circle cx="9" cy="9" r="8" fill="#C4C4C4" stroke="#333" stroke-width="2"/></mask><g mask="url(#mask0)" stroke="#333" stroke-width="2"><rect width="10" height="9" rx="4" transform="matrix(-1 0 0 1 14 12)"/><circle cx="9" cy="8" r="3"/></g></g></symbol><symbol id="cart" viewBox="0 0 21 18" fill="none" xmlns="http://www.w3.org/2000/svg"><g opacity=".5" stroke="#333" stroke-width="2"><path d="M3.752 2.714A2 2 0 015.732 1h10.535a2 2 0 011.98 1.715l1.728 12A2 2 0 0117.995 17H3.998a2 2 0 01-1.98-2.286l1.734-12z"/><path d="M14 5v2a3 3 0 01-3 3v0a3 3 0 01-3-3V5" stroke-linecap="round"/></g></symbol><symbol id="daw" fill="none" xmlns="http://www.w3.org/2000/svg"><path d="M7.707 1.707A1 1 0 106.293.293L3 3.586 1.707 2.293A1 1 0 10.293 3.707l2 2a1 1 0 001.414 0l4-4z" fill="#49B822"/></symbol><symbol id="circle" fill="none" xmlns="http://www.w3.org/2000/svg"><rect y="1" width="15" height="15" rx="7.5" fill="#49B822"/><path d="M10.085 10.9V12h-5.16v-.87l2.78-2.64c.314-.3.524-.56.63-.78.114-.227.17-.45.17-.67 0-.327-.11-.577-.33-.75-.22-.173-.543-.26-.97-.26-.713 0-1.26.243-1.64.73l-.91-.7c.274-.367.64-.65 1.1-.85.467-.207.987-.31 1.56-.31.76 0 1.367.18 1.82.54.454.36.68.85.68 1.47 0 .38-.08.737-.24 1.07-.16.333-.466.713-.92 1.14l-1.87 1.78h3.3z" fill="#fff"/></symbol><symbol id="burger" xmlns="http://www.w3.org/2000/svg"><path d="M1 0a1 1 0 000 2h14a1 1 0 100-2H1zm0 5a1 1 0 000 2h8a1 1 0 000-2H1z"/></symbol></svg>