<svg width="20" height="20" fill="none" xmlns="http://www.w3.org/2000/svg"><path opacity=".5" fill-rule="evenodd" clip-rule="evenodd" d="M13 6V3a1 1 0 012 0v3h-2zm-3 0V1a1 1 0 012 0v5h-2zM7 6V3a1 1 0 012 0v3H7zM4 6V5a1 1 0 012 0v1H4z" fill="#fff"/><path fill-rule="evenodd" clip-rule="evenodd" d="M17 16V9a1 1 0 00-2 0v3.051a3.437 3.437 0 00-.5-.051 3.5 3.5 0 00-3.5 3.5c.006.168.025.335.056.5H0V6h20v10h-3zM5 9a2 2 0 100 4 2 2 0 000-4z" fill="#fff"/><path opacity=".7" d="M5 13a2 2 0 100-4 2 2 0 000 4z" fill="#fff"/><path opacity=".5" fill-rule="evenodd" clip-rule="evenodd" d="M17 16.937A6.48 6.48 0 0111.5 20h-1a6.5 6.5 0 01-6-4h6.556a3.294 3.294 0 01-.056-.5 3.5 3.5 0 013.5-3.5c.168.005.335.022.5.051V9a1 1 0 012 0v7.937z" fill="#fff"/></svg>