<svg width="12" height="11" fill="none" xmlns="http://www.w3.org/2000/svg"><g opacity=".5"><path d="M1 3a2 2 0 012-2h6a2 2 0 012 2v5a2 2 0 01-2 2H3a2 2 0 01-2-2V3z" stroke="#fff" stroke-width="2"/><mask id="mask0" maskUnits="userSpaceOnUse" x="1" y="1" width="10" height="9"><path d="M1 3a2 2 0 012-2h6a2 2 0 012 2v5a2 2 0 01-2 2H3a2 2 0 01-2-2V3z" fill="#C4C4C4"/></mask><g mask="url(#mask0)"><path d="M6.665 6.106l18.373-16.36c.686-.61.254-1.746-.665-1.746h-36.746c-.92 0-1.352 1.136-.665 1.747L5.335 6.107a1 1 0 001.33 0z" stroke="#fff" stroke-width="2"/></g></g></svg>