<svg width="78" height="12" fill="none" xmlns="http://www.w3.org/2000/svg"><path fill-rule="evenodd" clip-rule="evenodd" d="M77.542 8.275a6.06 6.06 0 01-1.272 1.9 6.27 6.27 0 01-1.942 1.325c-.753.333-1.575.5-2.469.5-.916 0-1.747-.172-2.493-.517a6.17 6.17 0 01-1.917-1.358A6.133 6.133 0 0166.211 8.2a5.875 5.875 0 01-.441-2.233c0-.778.153-1.528.458-2.25a5.955 5.955 0 011.28-1.909A6.246 6.246 0 0169.46.491 6.12 6.12 0 0171.927 0c.916 0 1.747.173 2.494.516.746.345 1.385.8 1.916 1.368a6.11 6.11 0 011.23 1.932A5.93 5.93 0 0178 6.033c0 .778-.152 1.525-.458 2.242zm-3.07-3.467a2.844 2.844 0 00-.518-.983 2.596 2.596 0 00-.865-.683c-.345-.173-.749-.259-1.213-.259-.474 0-.885.09-1.23.267a2.52 2.52 0 00-.856.708 2.964 2.964 0 00-.5 1 4.086 4.086 0 00.008 2.3c.113.373.282.703.509.992.226.289.511.522.856.7.346.178.756.267 1.23.267.476 0 .888-.092 1.239-.276.35-.183.636-.422.856-.716.22-.294.385-.63.493-1.009.107-.377.16-.76.16-1.15 0-.4-.056-.785-.169-1.158zm-15.515 2.2a3.807 3.807 0 01-2.875 1.258h-1.968V11.9h-3.307V.067h5.19c.589 0 1.131.12 1.63.358a4.243 4.243 0 012.12 2.25c.203.495.305.992.305 1.492 0 .522-.096 1.03-.288 1.525a4.27 4.27 0 01-.807 1.317zm-2.57-3.842c-.203-.177-.407-.266-.61-.266h-1.663v2.533h1.747c.205 0 .394-.091.57-.275.174-.183.262-.513.262-.991 0-.489-.102-.822-.305-1zM40.44 2.9h-3.715v9h-3.308V.067h10.331V11.9H40.44v-9zM20.246 8.167c.238.289.529.52.874.691.345.173.732.259 1.162.259.226 0 .458-.025.695-.075.238-.05.467-.134.688-.25a2.33 2.33 0 00.593-.45c.175-.184.314-.41.416-.676l2.697 1.584a3.377 3.377 0 01-.822 1.166 5.228 5.228 0 01-1.256.867c-.47.233-.973.411-1.51.533a7.053 7.053 0 01-1.569.184c-.893 0-1.71-.175-2.45-.525a6.21 6.21 0 01-1.918-1.392A6.322 6.322 0 0116.6 8.117a5.956 5.956 0 01-.44-2.234c0-.722.138-1.433.415-2.133.277-.7.681-1.328 1.213-1.883A6.181 6.181 0 0119.72.517C20.478.172 21.343 0 22.316 0c1.164 0 2.174.236 3.028.709.854.472 1.49 1.097 1.908 1.874L24.725 4.35a2.098 2.098 0 00-.45-.717 2.292 2.292 0 00-.619-.45 2.706 2.706 0 00-.704-.233 3.963 3.963 0 00-.704-.067c-.475 0-.885.092-1.23.275a2.522 2.522 0 00-.848.717 3.07 3.07 0 00-.492 1 3.97 3.97 0 00-.16 1.108c0 .412.061.806.186 1.184.124.378.305.711.542 1zM7.294 9.583H4.088L3.376 11.9H0L4.19.067h3.019L11.382 11.9H8.023l-.729-2.317zM5.699 3.75L4.58 7.416h2.188L5.699 3.75z" fill="#999"/></svg>