<svg width="35" height="10" fill="none" xmlns="http://www.w3.org/2000/svg"><path fill-rule="evenodd" clip-rule="evenodd" d="M9.01 9V3.655h-.244L7.026 9H4.954L3.218 3.655h-.242V9H0V0h2.976a1.724 1.724 0 011.66 1.186l1.223 4.16h.257l1.225-4.16A1.726 1.726 0 019.01 0h2.976v9H9.01zm10.968 0V3.655h-.227L17.87 8.14a1.46 1.46 0 01-1.332.86h-2.525V0h3v5.345h.238l1.905-4.49.015-.034a1.46 1.46 0 011.312-.817h2.525v9H19.98L19.978 9zm11.569-2.986H28.02V9h-3V3.993h9.953a3.6 3.6 0 01-3.425 2.021z" fill="#fff"/><path opacity=".7" fill-rule="evenodd" clip-rule="evenodd" d="M34.919 3.006h-5.412c-2.472 0-4.528-1.3-4.961-3.006h7.023c1.89 0 3.422 1.117 3.422 2.494 0 .173-.024.345-.072.512z" fill="#fff"/></svg>