<svg width="8" height="14" fill="none" xmlns="http://www.w3.org/2000/svg"><path opacity=".35" fill-rule="evenodd" clip-rule="evenodd" d="M3.618 0a3.5 3.5 0 11-.036 7 3.5 3.5 0 01.036-7zm.008 1.956a1.52 1.52 0 11-.003-.002l.003.002zm-.008 6.06a5.822 5.822 0 001.965-.357c.35-.227.725-.416 1.116-.564.22.008.583.373.52 1.317-.034.538-1.018.761-1.364.967a2.266 2.266 0 01-.724.247s.847.906 1.063 1.129c.438.32.769.765.948 1.278a1.341 1.341 0 01-1 1 4.492 4.492 0 01-1.4-1.12 271.25 271.25 0 01-1.115-1.07s-.546.487-1.115 1.049a4.62 4.62 0 01-1.368 1.141 1.44 1.44 0 01-1.062-1.16 6.331 6.331 0 011.24-1.487c.25-.27.517-.523.8-.757a1.9 1.9 0 01-.637-.208C1.004 9.154-.026 8.874 0 8.378c.028-.512.159-1.3.616-1.3.39.142.765.324 1.119.542a4.36 4.36 0 001.882.394v.002z" fill="#fff"/></svg>