<svg width="19" height="19" fill="none" xmlns="http://www.w3.org/2000/svg"><path fill-rule="evenodd" clip-rule="evenodd" d="M5.835 11.212v.007-.007l12.1-6.971A9.355 9.355 0 0119 8.553a9.5 9.5 0 11-19 0c0-.231.011-.459.028-.686l5.807 3.345zm.007-1.164L.17 6.78c.061-.323.14-.642.235-.957l5.43 3.129v.006-.006L16.861 2.6c.2.246.388.502.564.767L5.842 10.048zm10.334-8.214L5.842 7.787.756 4.856a9.05 9.05 0 01.417-.851l4.662 2.686v.006-.006l9.578-5.518c.265.207.52.428.763.661zm-10.337 2.6v-.006L13.537 0c.336.157.662.333.977.529l-8.672 5-4.13-2.379c.183-.26.38-.512.588-.753l3.535 2.036.004.001z" fill="#fff"/></svg>