<svg width="33" height="12" fill="none" xmlns="http://www.w3.org/2000/svg"><path fill-rule="evenodd" clip-rule="evenodd" d="M30.108 11s-.23-1.4-.307-1.752h-3.318c-.092.275-.551 1.752-.551 1.752h-2.707l3.839-9.156a1.268 1.268 0 011.346-.84h2l2.1 10h-2.4L30.108 11zm-1.331-6.44l-.184-.855c-.122.381-.352.977-.336.961 0 0-.826 2.212-1.025 2.792h2.14c-.106-.503-.595-2.899-.595-2.899zm-5.568-1.25a4.337 4.337 0 00-1.927-.383c-1.025 0-1.484.427-1.5.854 0 .474.55.778 1.468 1.236 1.484.7 2.172 1.572 2.157 2.716-.015 2.06-1.774 3.4-4.5 3.4a7.9 7.9 0 01-2.875-.533l.35-2.243.353.168c.751.37 1.58.553 2.417.534a1.347 1.347 0 001.56-.977c0-.442-.336-.763-1.346-1.25-.98-.473-2.28-1.266-2.264-2.7.016-1.938 1.805-3.3 4.36-3.3a6.559 6.559 0 012.325.41l-.352 2.167-.226-.1zM11.829 11L13.45 1h2.585l-1.621 10h-2.586zm-6.225 0L3.597 3.472l-.157-.61a5.9 5.9 0 011 .632A10.8 10.8 0 016.82 6.22l-.007-.043.05.26.276 1.372L9.673 1h2.738L8.34 11H5.6h.004z" fill="#fff"/><path opacity=".5" fill-rule="evenodd" clip-rule="evenodd" d="M4.435 3.494a5.9 5.9 0 00-1-.633l-.147-.554c-.73-.43-1.51-.769-2.323-1.009v-.31h3.971a1.04 1.04 0 011.015.825l.86 4.407a10.8 10.8 0 00-2.376-2.726z" fill="#fff"/></svg>