<svg width="18" height="18" fill="none" xmlns="http://www.w3.org/2000/svg"><g opacity=".5"><circle cx="9" cy="9" r="8" stroke="#333" stroke-width="2"/><mask id="mask0" maskUnits="userSpaceOnUse" x="0" y="0" width="18" height="18"><circle cx="9" cy="9" r="8" fill="#C4C4C4" stroke="#333" stroke-width="2"/></mask><g mask="url(#mask0)" stroke="#333" stroke-width="2"><path d="M2 6s4.242 1 7 1 4.338-.226 7-1M2 12s4.242-1 7-1 4.338.226 7 1"/><path d="M12 9c0 3.233-.935 5.278-1.812 6.497A6.765 6.765 0 019 16.78a6.765 6.765 0 01-1.188-1.284C6.935 14.278 6 12.233 6 9s.935-5.278 1.812-6.497A6.695 6.695 0 019 1.22c.315.258.75.674 1.188 1.284C11.065 3.722 12 5.767 12 9zm-2.525 8.12h0s0 0 0 0zm-.95 0s0 0 0 0h0z"/></g></g></svg>