<svg width="150" height="50" fill="none" xmlns="http://www.w3.org/2000/svg"><path d="M56.77 18h3.24v15h-3.24v-2.16c-1.22 1.7-2.97 2.55-5.25 2.55-2.06 0-3.82-.76-5.28-2.28-1.46-1.54-2.19-3.41-2.19-5.61 0-2.22.73-4.09 2.19-5.61 1.46-1.52 3.22-2.28 5.28-2.28 2.28 0 4.03.84 5.25 2.52V18zm-8.13 10.95c.9.9 2.03 1.35 3.39 1.35 1.36 0 2.49-.45 3.39-1.35.9-.92 1.35-2.07 1.35-3.45 0-1.38-.45-2.52-1.35-3.42-.9-.92-2.03-1.38-3.39-1.38-1.36 0-2.49.46-3.39 1.38-.9.9-1.35 2.04-1.35 3.42s.45 2.53 1.35 3.45zM63.786 33V11.1h3.24V33h-3.24zm7.002 0V11.1h3.24V33h-3.24zm14.082.39c-2.26 0-4.15-.76-5.67-2.28-1.5-1.52-2.25-3.39-2.25-5.61 0-2.24.75-4.11 2.25-5.61 1.52-1.52 3.41-2.28 5.67-2.28 1.46 0 2.79.35 3.99 1.05 1.2.7 2.1 1.64 2.7 2.82l-2.79 1.62c-.34-.72-.86-1.28-1.56-1.68-.68-.42-1.47-.63-2.37-.63-1.32 0-2.43.45-3.33 1.35-.88.9-1.32 2.02-1.32 3.36 0 1.34.44 2.46 1.32 3.36.9.9 2.01 1.35 3.33 1.35.88 0 1.67-.21 2.37-.63.72-.42 1.26-.98 1.62-1.68l2.79 1.59a7.135 7.135 0 01-2.76 2.85c-1.2.7-2.53 1.05-3.99 1.05zm15.938 0c-2.2 0-4.07-.76-5.61-2.28-1.54-1.52-2.31-3.39-2.31-5.61s.77-4.09 2.31-5.61c1.54-1.52 3.41-2.28 5.61-2.28 2.22 0 4.09.76 5.61 2.28 1.54 1.52 2.31 3.39 2.31 5.61s-.77 4.09-2.31 5.61c-1.52 1.52-3.39 2.28-5.61 2.28zm-3.33-4.5c.9.9 2.01 1.35 3.33 1.35 1.32 0 2.43-.45 3.33-1.35.9-.9 1.35-2.03 1.35-3.39 0-1.36-.45-2.49-1.35-3.39-.9-.9-2.01-1.35-3.33-1.35-1.32 0-2.43.45-3.33 1.35-.9.9-1.35 2.03-1.35 3.39 0 1.36.45 2.49 1.35 3.39zm17.42-8.37c.82-1.86 2.36-2.79 4.62-2.79v3.51c-1.24-.08-2.32.22-3.24.9-.92.66-1.38 1.76-1.38 3.3V33h-3.24V18h3.24v2.52zm15.503-2.91c2.06 0 3.82.77 5.28 2.31 1.46 1.52 2.19 3.38 2.19 5.58 0 2.22-.73 4.09-2.19 5.61-1.46 1.52-3.22 2.28-5.28 2.28-2.28 0-4.03-.84-5.25-2.52V39h-3.24V18h3.24v2.16c1.22-1.7 2.97-2.55 5.25-2.55zm-3.9 11.34c.9.9 2.03 1.35 3.39 1.35 1.36 0 2.49-.45 3.39-1.35.9-.92 1.35-2.07 1.35-3.45 0-1.38-.45-2.52-1.35-3.42-.9-.92-2.03-1.38-3.39-1.38-1.36 0-2.49.46-3.39 1.38-.9.9-1.35 2.04-1.35 3.42s.45 2.53 1.35 3.45z" fill="#333"/><circle cx="14.5" cy="25.5" r="12.5" stroke="#3562D6" stroke-width="4"/></svg>