<svg width="15" height="14" fill="none" xmlns="http://www.w3.org/2000/svg"><path d="M3 7.024V7v.024zm0 0c0 2.383.887 3.992 1.08 4.225M3 7.024l1.08 4.225M2 7.001v-.025h0c0-1.316.244-2.422.52-3.238.263-.78.58-1.373.79-1.625h0c.16-.193.413-.434.733-.64a2.766 2.766 0 011.288-.451h0a5.07 5.07 0 01.858-.008h0c.057.004.075.006.1.006L2 7zm0 0v.023c0 1.316.244 2.422.52 3.238.263.78.58 1.373.79 1.625.16.193.413.434.733.64.319.206.762.413 1.288.451.477.034.68.022.858.008h0c.057-.004.075-.006.1-.006h0c.387 0 .68-.197.786-.273.153-.109.29-.24.402-.366.113-.127.226-.278.317-.441A1.51 1.51 0 008 11.176L2 7.001zm3.356-.003v.024l-.001.022h0v.024h0a12.05 12.05 0 00.065 1.105c.128-.02.28-.035.426-.027l-.49-1.148zm0 0l-.001-.023m0 .023v-.023m-.256 1.647v0zm0 0l-.116.64c-.16-.03-.387-.088-.483-.498l.6-.142zm.256-1.647v-.043.043zm2.067 2.752h0l.008.013c.09.147.215.35.317.551.081.16.253.507.253.885l-.578-1.449zm0 0l-.003-.004.003.004zm-.203-5.095h0l-.01.022c-.074.141-.187.36-.317.546a1.78 1.78 0 01-.312.351 1.245 1.245 0 01-.734.303h0a2.034 2.034 0 01-.426-.027 12.046 12.046 0 00-.065 1.105l1.864-2.3zm0 0c.058-.112.093-.18.121-.226l-.12.226zm-.01 4.714l.01.022-.01-.022zm0 0c-.074-.141-.187-.36-.317-.546m.316.546L6.892 8.8m0 0a1.78 1.78 0 00-.312-.351m.312.35l-.312-.35m0 0a1.245 1.245 0 00-.734-.303l.734.303zM5.403 11.98c.426.031.58.02.709.009.057-.004.11-.009.178-.009h-.887zm0 0c-.613-.043-1.13-.497-1.323-.73m1.323.73l-1.323-.73M5.1 8.621v0zm2.24.972a4.532 4.532 0 01-.12-.226l.2.355c-.03-.049-.057-.09-.08-.13zM8 2.824a1.51 1.51 0 00-.206-.724 2.54 2.54 0 00-.317-.44 2.439 2.439 0 00-.402-.367c-.107-.076-.399-.273-.785-.273L8 2.824zm-.253.885c.081-.16.253-.507.253-.885l-.581 1.454s0 0 0 0l.003-.005h0l.008-.013c.09-.147.215-.35.317-.551z" stroke="#333" stroke-width="2" opacity=".5"/></svg>