<svg width="18" height="18" fill="none" xmlns="http://www.w3.org/2000/svg"><g opacity=".5"><path d="M11 2a1 1 0 100-2v2zm7 5a1 1 0 10-2 0h2zm-7 9H7v2h4v-2zm-9-5V7H0v4h2zm5-9h4V0H7v2zm9 5v4h2V7h-2zm-9 9a5 5 0 01-5-5H0a7 7 0 007 7v-2zm4 2a7 7 0 007-7h-2a5 5 0 01-5 5v2zM2 7a5 5 0 015-5V0a7 7 0 00-7 7h2z" fill="#333"/><mask id="mask0" maskUnits="userSpaceOnUse" x="0" y="0" width="18" height="18"><circle cx="9" cy="9" r="8" fill="#C4C4C4" stroke="#333" stroke-width="2"/></mask><g mask="url(#mask0)" stroke="#333" stroke-width="2"><rect width="10" height="9" rx="4" transform="matrix(-1 0 0 1 14 12)"/><circle cx="9" cy="8" r="3"/></g></g></svg>