<svg width="13" height="11" fill="none" xmlns="http://www.w3.org/2000/svg"><path fill-rule="evenodd" clip-rule="evenodd" d="M6.259 3.418S6.496.071 8.829.042C10.727.017 11.09.88 11.09.88a4.281 4.281 0 001.556-.862 2.55 2.55 0 01-.636 1.508c.36-.003.71-.13.989-.36a1.941 1.941 0 01-1.037 1.245 9.717 9.717 0 01-1.6 5.916C8.666 10.795 5.575 10.979 3.88 11A9.039 9.039 0 01.015 9.873s2.571.032 3.723-.81a18.227 18.227 0 01-2.549-2.106c.31.026.623-.006.923-.093a13.751 13.751 0 01-2.1-2.9c.32.064.645.08.968.05C.98 4.014-.519 1.58.19 0c0 .004 2.534 3.205 6.069 3.418z" fill="#333"/></svg>