<svg width="15" height="9" fill="none" xmlns="http://www.w3.org/2000/svg"><path fill-rule="evenodd" clip-rule="evenodd" d="M8.951.785v3.253a.34.34 0 00.424.35c.3-.02.974-2.796 1.274-3.4a1.92 1.92 0 01.735-.826c.1-.091.23-.146.365-.156h2.866a.461.461 0 01.382.51.464.464 0 01-.084.217c-.224.5-2.145 3.605-2.245 3.731-.12.163-.2.35-.236.55a1.2 1.2 0 00.31.626c.2.225 1.809 1.997 1.96 2.152.141.163.236.362.273.575a.762.762 0 01-.796.612h-2.332a2.786 2.786 0 01-.948-.564c-.224-.2-1.055-1.15-1.18-1.276a.405.405 0 00-.349-.144c-.149 0-.433.015-.42.584.036.394-.047.79-.237 1.137a.988.988 0 01-.734.275 4.967 4.967 0 01-2.901-.726C3.511 7.289 1.726 4.682.896 3.018A6.517 6.517 0 010 .308c.05-.177.05-.3.225-.3h2.589a.833.833 0 01.35.325c.074.1.643 1.81.818 2.11.174.3 1.033 1.947 1.5 1.947a.597.597 0 00.471-.699V1.514A1.934 1.934 0 004.98.516a1.257 1.257 0 01.923-.5C6.5-.008 7.998-.009 8.322.04a.778.778 0 01.63.745z" fill="#333"/></svg>