<svg class="hide"><defs><path d="M100.001 17.942a39.965 39.965 0 01-11.783 3.339c4.236-2.624 7.49-6.779 9.021-11.73a40.289 40.289 0 01-13.026 5.146C80.47 10.575 75.138 8 69.234 8c-11.33 0-20.518 9.494-20.518 21.205 0 1.662.183 3.281.533 4.833-17.052-.884-32.168-9.326-42.288-22.155a21.637 21.637 0 00-2.778 10.659c0 7.357 3.622 13.849 9.127 17.65a19.94 19.94 0 01-9.293-2.651c-.002.089-.002.178-.002.268 0 10.272 7.072 18.845 16.458 20.793a19.939 19.939 0 01-9.264.365c2.609 8.424 10.187 14.555 19.166 14.726-7.021 5.688-15.867 9.077-25.48 9.077A40.59 40.59 0 010 82.473C9.08 88.491 19.865 92 31.449 92c37.737 0 58.374-32.312 58.374-60.336 0-.92-.02-1.834-.059-2.743a42.547 42.547 0 0010.237-10.979z" id="shape-codepen"/><path class="youtube" d="M98.77 27.492c-1.225-5.064-5.576-8.799-10.811-9.354C75.561 16.818 63.01 15.993 50.514 16c-12.495-.007-25.045.816-37.446 2.139-5.235.557-9.583 4.289-10.806 9.354C.522 34.704.5 42.574.5 50.001c0 7.426 0 15.296 1.741 22.509 1.224 5.061 5.572 8.799 10.807 9.352 12.399 1.32 24.949 2.145 37.446 2.14 12.494.005 25.047-.817 37.443-2.14 5.234-.555 9.586-4.291 10.81-9.352 1.741-7.213 1.753-15.083 1.753-22.509s.01-15.297-1.73-22.509M67.549 52.203L43.977 64.391c-2.344 1.213-4.262.119-4.262-2.428V38.036c0-2.548 1.917-3.644 4.262-2.429l23.572 12.188c2.347 1.213 2.347 3.197 0 4.408" id="shape-youtube"/><g id="shape-codepen"><path d="M50 0C22.385 0 0 22.385 0 50s22.385 50 50 50c27.614 0 50-22.385 50-50S77.615 0 50 0zm0 91.789C26.958 91.789 8.212 73.042 8.212 50S26.958 8.212 50 8.212c23.042 0 41.788 18.747 41.788 41.789 0 23.041-18.746 41.788-41.788 41.788z"/><path d="M80.893 40.234c-.006-.039-.016-.076-.022-.115a2.753 2.753 0 00-.046-.223c-.012-.044-.028-.086-.042-.128a2.595 2.595 0 00-.068-.193c-.018-.044-.039-.088-.059-.13a2.058 2.058 0 00-.09-.175c-.024-.042-.051-.083-.076-.124a3.071 3.071 0 00-.203-.276 2.235 2.235 0 00-.132-.143c-.035-.036-.069-.072-.106-.104a3.595 3.595 0 00-.15-.127c-.04-.031-.079-.062-.12-.091-.016-.01-.029-.023-.044-.033L51.474 19.531a2.656 2.656 0 00-2.947 0l-28.26 18.84c-.015.01-.028.023-.044.033a2.643 2.643 0 00-.27.218c-.037.032-.071.068-.106.104a2.235 2.235 0 00-.224.258 2.552 2.552 0 00-.187.285 2.22 2.22 0 00-.09.175 1.92 1.92 0 00-.06.13c-.026.063-.047.128-.068.193-.014.042-.029.084-.042.128-.02.073-.032.148-.046.223-.006.039-.016.076-.021.115a2.483 2.483 0 00-.024.346V59.42c0 .117.009.233.024.348.005.038.015.077.021.114.014.075.027.149.046.223.012.043.028.086.042.128.021.065.042.13.068.195.018.044.039.086.06.129a2.24 2.24 0 00.166.299c.035.056.072.109.111.161.029.041.061.078.092.115.042.049.086.098.132.144.035.036.069.071.106.104a3.046 3.046 0 00.27.218c.016.01.029.023.044.032l28.259 18.84a2.659 2.659 0 002.947 0l28.259-18.84c.015-.009.028-.022.044-.032a3.046 3.046 0 00.27-.218c.037-.033.071-.068.106-.104a2.557 2.557 0 00.335-.42l.076-.122c.033-.059.062-.117.09-.177.02-.042.041-.085.059-.129.026-.065.047-.13.068-.195.014-.042.03-.085.042-.128a2.45 2.45 0 00.046-.223c.006-.037.016-.076.022-.114.014-.115.023-.231.023-.348V40.581a2.352 2.352 0 00-.02-.347zM52.657 26.707l20.817 13.877-9.298 6.221-11.519-7.706V26.707zm-5.314 0V39.1l-11.518 7.706-9.299-6.221 20.817-13.878zM24.398 45.554L31.046 50l-6.648 4.446v-8.892zm22.945 27.74L26.525 59.417l9.299-6.219 11.518 7.704v12.392zM50 56.286L40.603 50 50 43.715 59.397 50 50 56.286zm2.657 17.008V60.902l11.519-7.704 9.298 6.219-20.817 13.877zm22.945-18.847L68.955 50l6.647-4.446v8.893z"/></g></defs></svg>