<svg width="60" height="60" fill="none" xmlns="http://www.w3.org/2000/svg"><path fill-rule="evenodd" clip-rule="evenodd" d="M58 37h-1v21a2 2 0 01-2 2H5a2 2 0 01-2-2V37H2a2 2 0 01-2-2V25h9v4h4v-4h9v10a2 2 0 01-2 2h-1v21h5V48a6 6 0 1112 0v10h5V37h-1a2 2 0 01-2-2V25h9v4h4v-4h9v10a2 2 0 01-2 2zM5 53v5h12V37H5v16zm15-18v-8h-5v4H7v-4H2v8h18zm14 13a4 4 0 10-8 0v10h8V48zm9 10h12V37H43v21zm15-25v-6h-5v4h-8v-4h-5v8h18v-2zm-9 8a3 3 0 013 3v7h-6v-7a3 3 0 013-3zm-1 8h2v-5a1 1 0 00-2 0v5zm-37-8a3 3 0 013 3v7H8v-7a3 3 0 013-3zm-1 8h2v-5a1 1 0 00-2 0v5zm23-20v7h-6v-7a3 3 0 016 0zm-4 0v5h2v-5a1 1 0 00-2 0zm19-10h-2v4h-2v-4H16v4h-2v-4h-2a2 2 0 01-2-2V7h10v4h5V7h4V0h2v1h3a1 1 0 011 1v1h3a1 1 0 010 2h-4a1 1 0 01-1-1V3h-2v4h4v4h5V7h10v10a2 2 0 01-2 2zm0-4V9h-6v4h-9V9h-6v4h-9V9h-6v8h36v-2z" fill="#3562D6"/></svg>